<svg width="640" height="640" viewBox="0 0 640 640" fill="none" xmlns="http://www.w3.org/2000/svg">
<circle cx="320" cy="320" r="320" fill="#323232"/>
<path d="M95.216 359.25C87.566 359.25 80.966 357.525 75.416 354.075C69.916 350.625 65.666 345.7 62.666 339.3C59.666 332.9 58.166 325.3 58.166 316.5C58.166 307.65 59.641 300.025 62.591 293.625C65.591 287.225 69.841 282.325 75.341 278.925C80.891 275.475 87.516 273.75 95.216 273.75C102.966 273.75 109.591 275.5 115.091 279C120.591 282.5 124.791 287.575 127.691 294.225C130.641 300.875 132.116 308.9 132.116 318.3H125.366V316.2C125.066 304.55 122.316 295.625 117.116 289.425C111.966 283.175 104.666 280.05 95.216 280.05C85.616 280.05 78.166 283.25 72.866 289.65C67.566 296 64.916 304.95 64.916 316.5C64.916 328.05 67.566 337.025 72.866 343.425C78.166 349.775 85.616 352.95 95.216 352.95C101.916 352.95 107.791 351.375 112.841 348.225C117.891 345.075 121.916 340.55 124.916 334.65L130.166 337.65C126.866 344.55 122.191 349.875 116.141 353.625C110.091 357.375 103.116 359.25 95.216 359.25ZM62.216 318.3V312H128.216V318.3H62.216ZM136.723 357L169.723 316.05L137.473 276H145.273L173.473 311.4L201.523 276H209.323L177.073 316.05L210.073 357H202.123L173.473 320.7L144.673 357H136.723ZM256.691 359.25C249.541 359.25 243.466 357.35 238.466 353.55C233.466 349.75 229.641 344.625 226.991 338.175C224.391 331.675 223.091 324.4 223.091 316.35C223.091 308.15 224.416 300.85 227.066 294.45C229.716 288 233.616 282.95 238.766 279.3C243.966 275.6 250.341 273.75 257.891 273.75C265.141 273.75 271.291 275.65 276.341 279.45C281.441 283.2 285.316 288.3 287.966 294.75C290.616 301.2 291.941 308.4 291.941 316.35C291.941 324.45 290.591 331.75 287.891 338.25C285.191 344.7 281.216 349.825 275.966 353.625C270.766 357.375 264.341 359.25 256.691 359.25ZM222.041 393V276H227.891V339.75H228.341V393H222.041ZM256.691 352.95C262.941 352.95 268.166 351.35 272.366 348.15C276.616 344.95 279.816 340.6 281.966 335.1C284.116 329.55 285.191 323.3 285.191 316.35C285.191 309.45 284.141 303.275 282.041 297.825C279.991 292.325 276.866 288 272.666 284.85C268.466 281.65 263.141 280.05 256.691 280.05C250.391 280.05 245.091 281.6 240.791 284.7C236.541 287.8 233.316 292.1 231.116 297.6C228.966 303.05 227.891 309.3 227.891 316.35C227.891 323.3 228.966 329.55 231.116 335.1C233.266 340.6 236.466 344.95 240.716 348.15C245.016 351.35 250.341 352.95 256.691 352.95ZM308.467 357V276H314.317V295.35L312.367 292.8C313.217 290.6 314.292 288.55 315.592 286.65C316.892 284.75 318.167 283.2 319.417 282C321.617 279.85 324.217 278.225 327.217 277.125C330.267 275.975 333.317 275.325 336.367 275.175C339.417 274.975 342.117 275.25 344.467 276V282C341.117 281.25 337.567 281.125 333.817 281.625C330.067 282.075 326.567 283.8 323.317 286.8C320.467 289.45 318.442 292.5 317.242 295.95C316.092 299.4 315.392 302.975 315.142 306.675C314.892 310.325 314.767 313.8 314.767 317.1V357H308.467ZM389.796 359.25C382.146 359.25 375.546 357.525 369.996 354.075C364.496 350.625 360.246 345.7 357.246 339.3C354.246 332.9 352.746 325.3 352.746 316.5C352.746 307.65 354.221 300.025 357.171 293.625C360.171 287.225 364.421 282.325 369.921 278.925C375.471 275.475 382.096 273.75 389.796 273.75C397.546 273.75 404.171 275.5 409.671 279C415.171 282.5 419.371 287.575 422.271 294.225C425.221 300.875 426.696 308.9 426.696 318.3H419.946V316.2C419.646 304.55 416.896 295.625 411.696 289.425C406.546 283.175 399.246 280.05 389.796 280.05C380.196 280.05 372.746 283.25 367.446 289.65C362.146 296 359.496 304.95 359.496 316.5C359.496 328.05 362.146 337.025 367.446 343.425C372.746 349.775 380.196 352.95 389.796 352.95C396.496 352.95 402.371 351.375 407.421 348.225C412.471 345.075 416.496 340.55 419.496 334.65L424.746 337.65C421.446 344.55 416.771 349.875 410.721 353.625C404.671 357.375 397.696 359.25 389.796 359.25ZM356.796 318.3V312H422.796V318.3H356.796ZM472.782 359.1C463.632 359.1 456.032 357.2 449.982 353.4C443.932 349.55 440.182 344.25 438.732 337.5L445.182 336.3C446.532 341.3 449.682 345.3 454.632 348.3C459.632 351.3 465.732 352.8 472.932 352.8C480.282 352.8 486.107 351.225 490.407 348.075C494.757 344.925 496.932 340.65 496.932 335.25C496.932 332.3 496.282 329.9 494.982 328.05C493.682 326.15 491.132 324.425 487.332 322.875C483.582 321.325 478.032 319.55 470.682 317.55C462.982 315.45 456.982 313.425 452.682 311.475C448.432 309.475 445.432 307.25 443.682 304.8C441.982 302.3 441.132 299.25 441.132 295.65C441.132 291.35 442.407 287.55 444.957 284.25C447.507 280.95 451.032 278.375 455.532 276.525C460.032 274.675 465.232 273.75 471.132 273.75C477.082 273.75 482.432 274.75 487.182 276.75C491.982 278.7 495.832 281.45 498.732 285C501.682 288.5 503.382 292.55 503.832 297.15L497.382 298.35C496.432 292.7 493.532 288.25 488.682 285C483.882 281.7 477.882 280.05 470.682 280.05C463.932 279.95 458.407 281.325 454.107 284.175C449.857 287.025 447.732 290.75 447.732 295.35C447.732 297.9 448.457 300.1 449.907 301.95C451.357 303.75 453.882 305.4 457.482 306.9C461.082 308.4 466.082 309.95 472.482 311.55C480.582 313.6 486.882 315.675 491.382 317.775C495.932 319.875 499.107 322.325 500.907 325.125C502.757 327.925 503.682 331.4 503.682 335.55C503.682 342.9 500.932 348.675 495.432 352.875C489.932 357.025 482.382 359.1 472.782 359.1ZM549.833 359.1C540.683 359.1 533.083 357.2 527.033 353.4C520.983 349.55 517.233 344.25 515.783 337.5L522.233 336.3C523.583 341.3 526.733 345.3 531.683 348.3C536.683 351.3 542.783 352.8 549.983 352.8C557.333 352.8 563.158 351.225 567.458 348.075C571.808 344.925 573.983 340.65 573.983 335.25C573.983 332.3 573.333 329.9 572.033 328.05C570.733 326.15 568.183 324.425 564.383 322.875C560.633 321.325 555.083 319.55 547.733 317.55C540.033 315.45 534.033 313.425 529.733 311.475C525.483 309.475 522.483 307.25 520.733 304.8C519.033 302.3 518.183 299.25 518.183 295.65C518.183 291.35 519.458 287.55 522.008 284.25C524.558 280.95 528.083 278.375 532.583 276.525C537.083 274.675 542.283 273.75 548.183 273.75C554.133 273.75 559.483 274.75 564.233 276.75C569.033 278.7 572.883 281.45 575.783 285C578.733 288.5 580.433 292.55 580.883 297.15L574.433 298.35C573.483 292.7 570.583 288.25 565.733 285C560.933 281.7 554.933 280.05 547.733 280.05C540.983 279.95 535.458 281.325 531.158 284.175C526.908 287.025 524.783 290.75 524.783 295.35C524.783 297.9 525.508 300.1 526.958 301.95C528.408 303.75 530.933 305.4 534.533 306.9C538.133 308.4 543.133 309.95 549.533 311.55C557.633 313.6 563.933 315.675 568.433 317.775C572.983 319.875 576.158 322.325 577.958 325.125C579.808 327.925 580.733 331.4 580.733 335.55C580.733 342.9 577.983 348.675 572.483 352.875C566.983 357.025 559.433 359.1 549.833 359.1Z" fill="white"/>
</svg>
